<svg width="189" height="40" viewBox="0 0 189 40" fill="none" xmlns="http://www.w3.org/2000/svg">
<path fill-rule="evenodd" clip-rule="evenodd" d="M0 6.24152H8.4044V31.3811H0V6.24152ZM11.2109 6.24152H19.5569V39.7588H11.2109V6.24152Z" fill="white"/>
<path d="M43.7159 35.1364V26.4858H43.5028C43.3182 26.7841 43.0554 27.1605 42.7145 27.6151C42.3736 28.0625 41.8871 28.4638 41.255 28.8189C40.6229 29.1669 39.7813 29.3409 38.7301 29.3409C37.3665 29.3409 36.1626 28.9964 35.1186 28.3075C34.0746 27.6115 33.2578 26.6314 32.6683 25.3672C32.0788 24.0959 31.7841 22.5938 31.7841 20.8608C31.7841 19.142 32.0788 17.6506 32.6683 16.3864C33.2578 15.1222 34.0781 14.1456 35.1293 13.4567C36.1804 12.7678 37.3949 12.4233 38.7727 12.4233C39.8381 12.4233 40.6797 12.6009 41.2976 12.956C41.9226 13.304 42.3984 13.7017 42.7251 14.1491C43.0589 14.5895 43.3182 14.9517 43.5028 15.2358H43.8011V12.6364H46.2301V35.1364H43.7159ZM39.071 27.0824C40.0795 27.0824 40.9318 26.8196 41.6278 26.294C42.3239 25.7614 42.853 25.0263 43.2152 24.0888C43.5774 23.1442 43.7585 22.054 43.7585 20.8182C43.7585 19.5966 43.581 18.5277 43.2259 17.6115C42.8707 16.6882 42.3452 15.9709 41.6491 15.4595C40.9531 14.9411 40.0938 14.6818 39.071 14.6818C38.0057 14.6818 37.1179 14.9553 36.4077 15.5021C35.7045 16.0419 35.1754 16.777 34.8203 17.7074C34.4723 18.6307 34.2983 19.6676 34.2983 20.8182C34.2983 21.983 34.4759 23.0412 34.831 23.9929C35.1932 24.9375 35.7259 25.6903 36.429 26.2514C37.1392 26.8054 38.0199 27.0824 39.071 27.0824ZM61.1449 22.3097V12.6364H63.6591V29H61.1449V26.2301H60.9744C60.5909 27.0611 59.9943 27.7678 59.1847 28.3501C58.375 28.9254 57.3523 29.2131 56.1165 29.2131C55.0938 29.2131 54.1847 28.9893 53.3892 28.5419C52.5938 28.0874 51.9688 27.4055 51.5142 26.4964C51.0597 25.5803 50.8324 24.4261 50.8324 23.0341V12.6364H53.3466V22.8636C53.3466 24.0568 53.6804 25.0085 54.348 25.7188C55.0227 26.429 55.8821 26.7841 56.9261 26.7841C57.5511 26.7841 58.1868 26.6243 58.8331 26.3047C59.4865 25.9851 60.0334 25.495 60.4737 24.8345C60.9212 24.174 61.1449 23.3324 61.1449 22.3097ZM68.6049 29V7.18182H71.1191V15.2358H71.3322C71.5169 14.9517 71.7725 14.5895 72.0993 14.1491C72.4331 13.7017 72.9089 13.304 73.5268 12.956C74.1518 12.6009 74.997 12.4233 76.0623 12.4233C77.4402 12.4233 78.6547 12.7678 79.7058 13.4567C80.7569 14.1456 81.5772 15.1222 82.1667 16.3864C82.7562 17.6506 83.051 19.142 83.051 20.8608C83.051 22.5938 82.7562 24.0959 82.1667 25.3672C81.5772 26.6314 80.7605 27.6115 79.7164 28.3075C78.6724 28.9964 77.4686 29.3409 76.1049 29.3409C75.0538 29.3409 74.2122 29.1669 73.5801 28.8189C72.948 28.4638 72.4615 28.0625 72.1206 27.6151C71.7797 27.1605 71.5169 26.7841 71.3322 26.4858H71.0339V29H68.6049ZM71.0765 20.8182C71.0765 22.054 71.2576 23.1442 71.6199 24.0888C71.9821 25.0263 72.5112 25.7614 73.2072 26.294C73.9032 26.8196 74.7555 27.0824 75.764 27.0824C76.8152 27.0824 77.6923 26.8054 78.3954 26.2514C79.1056 25.6903 79.6383 24.9375 79.9934 23.9929C80.3556 23.0412 80.5368 21.983 80.5368 20.8182C80.5368 19.6676 80.3592 18.6307 80.0041 17.7074C79.6561 16.777 79.127 16.0419 78.4167 15.5021C77.7136 14.9553 76.8294 14.6818 75.764 14.6818C74.7413 14.6818 73.8819 14.9411 73.1859 15.4595C72.4899 15.9709 71.9643 16.6882 71.6092 17.6115C71.2541 18.5277 71.0765 19.5966 71.0765 20.8182ZM86.8968 29V12.6364H89.411V29H86.8968ZM88.1752 9.90909C87.6852 9.90909 87.2626 9.74219 86.9075 9.40838C86.5595 9.07457 86.3855 8.6733 86.3855 8.20455C86.3855 7.7358 86.5595 7.33452 86.9075 7.00071C87.2626 6.6669 87.6852 6.5 88.1752 6.5C88.6653 6.5 89.0843 6.6669 89.4324 7.00071C89.7875 7.33452 89.965 7.7358 89.965 8.20455C89.965 8.6733 89.7875 9.07457 89.4324 9.40838C89.0843 9.74219 88.6653 9.90909 88.1752 9.90909ZM100.664 29.3409C99.1296 29.3409 97.8086 28.9787 96.7006 28.2543C95.5927 27.5298 94.7404 26.532 94.1438 25.2607C93.5472 23.9893 93.2489 22.5369 93.2489 20.9034C93.2489 19.2415 93.5543 17.7749 94.1651 16.5036C94.783 15.2251 95.6424 14.2273 96.7433 13.5099C97.8512 12.7855 99.1438 12.4233 100.621 12.4233C101.772 12.4233 102.809 12.6364 103.732 13.0625C104.655 13.4886 105.412 14.0852 106.001 14.8523C106.591 15.6193 106.956 16.5142 107.098 17.5369H104.584C104.392 16.7912 103.966 16.1307 103.306 15.5554C102.652 14.973 101.772 14.6818 100.664 14.6818C99.6836 14.6818 98.8242 14.9375 98.0856 15.4489C97.354 15.9531 96.7823 16.6669 96.3704 17.5902C95.9656 18.5064 95.7631 19.5824 95.7631 20.8182C95.7631 22.0824 95.962 23.1832 96.3597 24.1207C96.7646 25.0582 97.3327 25.7862 98.0643 26.3047C98.8029 26.8232 99.6694 27.0824 100.664 27.0824C101.317 27.0824 101.91 26.9688 102.443 26.7415C102.975 26.5142 103.426 26.1875 103.796 25.7614C104.165 25.3352 104.428 24.8239 104.584 24.2273H107.098C106.956 25.1932 106.605 26.0632 106.044 26.8374C105.49 27.6044 104.755 28.2152 103.838 28.6697C102.929 29.1172 101.871 29.3409 100.664 29.3409Z" fill="white"/>
<path d="M125.39 29.3409C124.027 29.3409 122.823 28.9964 121.779 28.3075C120.735 27.6115 119.918 26.6314 119.328 25.3672C118.739 24.0959 118.444 22.5938 118.444 20.8608C118.444 19.142 118.739 17.6506 119.328 16.3864C119.918 15.1222 120.738 14.1456 121.789 13.4567C122.841 12.7678 124.055 12.4233 125.433 12.4233C126.498 12.4233 127.34 12.6009 127.958 12.956C128.583 13.304 129.059 13.7017 129.385 14.1491C129.719 14.5895 129.978 14.9517 130.163 15.2358H130.376V7.18182H132.89V29H130.461V26.4858H130.163C129.978 26.7841 129.716 27.1605 129.375 27.6151C129.034 28.0625 128.547 28.4638 127.915 28.8189C127.283 29.1669 126.441 29.3409 125.39 29.3409ZM125.731 27.0824C126.74 27.0824 127.592 26.8196 128.288 26.294C128.984 25.7614 129.513 25.0263 129.875 24.0888C130.238 23.1442 130.419 22.054 130.419 20.8182C130.419 19.5966 130.241 18.5277 129.886 17.6115C129.531 16.6882 129.005 15.9709 128.309 15.4595C127.613 14.9411 126.754 14.6818 125.731 14.6818C124.666 14.6818 123.778 14.9553 123.068 15.5021C122.365 16.0419 121.836 16.777 121.48 17.7074C121.132 18.6307 120.958 19.6676 120.958 20.8182C120.958 21.983 121.136 23.0412 121.491 23.9929C121.853 24.9375 122.386 25.6903 123.089 26.2514C123.799 26.8054 124.68 27.0824 125.731 27.0824ZM137.844 29V12.6364H140.273V15.108H140.444C140.742 14.2983 141.282 13.6413 142.063 13.1371C142.844 12.6328 143.725 12.3807 144.705 12.3807C144.89 12.3807 145.12 12.3842 145.397 12.3913C145.674 12.3984 145.884 12.4091 146.026 12.4233V14.9801C145.941 14.9588 145.745 14.9268 145.44 14.8842C145.142 14.8345 144.826 14.8097 144.492 14.8097C143.696 14.8097 142.986 14.9766 142.361 15.3104C141.743 15.6371 141.253 16.0916 140.891 16.674C140.536 17.2493 140.358 17.9062 140.358 18.6449V29H137.844ZM153.822 29.3835C152.785 29.3835 151.844 29.1882 150.998 28.7976C150.153 28.3999 149.482 27.8281 148.985 27.0824C148.488 26.3295 148.239 25.4205 148.239 24.3551C148.239 23.4176 148.424 22.6577 148.793 22.0753C149.162 21.4858 149.656 21.0241 150.274 20.6903C150.892 20.3565 151.574 20.108 152.319 19.9446C153.072 19.7741 153.829 19.6392 154.589 19.5398C155.583 19.4119 156.389 19.3161 157.007 19.2521C157.632 19.1811 158.086 19.0639 158.371 18.9006C158.662 18.7372 158.807 18.4531 158.807 18.0483V17.9631C158.807 16.9119 158.52 16.0952 157.944 15.5128C157.376 14.9304 156.513 14.6392 155.356 14.6392C154.155 14.6392 153.214 14.902 152.532 15.4276C151.851 15.9531 151.371 16.5142 151.094 17.1108L148.708 16.2585C149.134 15.2642 149.702 14.4901 150.412 13.9361C151.13 13.375 151.911 12.9844 152.756 12.7642C153.608 12.5369 154.447 12.4233 155.27 12.4233C155.796 12.4233 156.4 12.4872 157.081 12.6151C157.77 12.7358 158.434 12.9879 159.074 13.3714C159.72 13.755 160.256 14.3338 160.682 15.108C161.108 15.8821 161.322 16.919 161.322 18.2188V29H158.807V26.7841H158.68C158.509 27.1392 158.225 27.5192 157.827 27.924C157.43 28.3288 156.9 28.6733 156.24 28.9574C155.579 29.2415 154.773 29.3835 153.822 29.3835ZM154.205 27.125C155.199 27.125 156.037 26.9297 156.719 26.5391C157.408 26.1484 157.927 25.6442 158.275 25.0263C158.63 24.4084 158.807 23.7585 158.807 23.0767V20.7756C158.701 20.9034 158.466 21.0206 158.104 21.1271C157.749 21.2266 157.337 21.3153 156.868 21.3935C156.407 21.4645 155.956 21.5284 155.515 21.5852C155.082 21.6349 154.731 21.6776 154.461 21.7131C153.807 21.7983 153.197 21.9368 152.628 22.1286C152.067 22.3132 151.613 22.5937 151.265 22.9702C150.924 23.3395 150.753 23.8437 150.753 24.483C150.753 25.3565 151.077 26.017 151.723 26.4645C152.376 26.9048 153.204 27.125 154.205 27.125ZM169.618 29L164.632 12.6364H167.274L170.811 25.1648H170.982L174.476 12.6364H177.161L180.612 25.1222H180.783L184.32 12.6364H186.962L181.976 29H179.504L175.925 16.429H175.669L172.089 29H169.618Z" fill="#1ADEF5"/>
</svg>
